<svg width="30" height="30" viewBox="0 0 30 30" fill="none" xmlns="http://www.w3.org/2000/svg">
<path d="M13.7874 10.6624C13.8795 10.5766 13.9534 10.4731 14.0046 10.3581C14.0559 10.2431 14.0834 10.119 14.0856 9.9931C14.0879 9.86722 14.0647 9.74219 14.0176 9.62545C13.9704 9.50872 13.9002 9.40267 13.8112 9.31365C13.7222 9.22463 13.6161 9.15445 13.4994 9.10729C13.3827 9.06014 13.2576 9.03699 13.1318 9.03921C13.0059 9.04143 12.8817 9.06898 12.7667 9.12022C12.6517 9.17146 12.5482 9.24534 12.4624 9.33745L7.46241 14.3374C7.28684 14.5132 7.18823 14.7515 7.18823 14.9999C7.18823 15.2484 7.28684 15.4867 7.46241 15.6624L12.4624 20.6624C12.5482 20.7546 12.6517 20.8284 12.7667 20.8797C12.8817 20.9309 13.0059 20.9585 13.1318 20.9607C13.2576 20.9629 13.3827 20.9398 13.4994 20.8926C13.6161 20.8455 13.7222 20.7753 13.8112 20.6862C13.9002 20.5972 13.9704 20.4912 14.0176 20.3744C14.0647 20.2577 14.0879 20.1327 14.0856 20.0068C14.0834 19.8809 14.0559 19.7568 14.0046 19.6418C13.9534 19.5268 13.8795 19.4233 13.7874 19.3374L10.3874 15.9374H22.4999C22.7485 15.9374 22.987 15.8387 23.1628 15.6629C23.3386 15.487 23.4374 15.2486 23.4374 14.9999C23.4374 14.7513 23.3386 14.5129 23.1628 14.337C22.987 14.1612 22.7485 14.0624 22.4999 14.0624H10.3874L13.7874 10.6624Z" fill="#215675"/>
</svg>
