<svg width="33" height="33" viewBox="0 0 33 33" fill="none" xmlns="http://www.w3.org/2000/svg">
<rect width="33" height="33" rx="2" fill="#D9D9D9"/>
<rect width="33" height="33" rx="2" fill="#088632"/>
<path d="M17.9834 8.54651C17.2453 8.67069 16.5105 8.97424 15.8966 9.40886C15.5482 9.65377 15.4654 9.7469 15.4654 9.88488C15.4654 10.0229 15.5827 10.1781 16.0966 10.7162C16.376 11.0094 16.3933 11.0232 16.5105 11.0025C16.5761 10.9921 16.7279 10.9128 16.8486 10.8231C17.7075 10.1919 18.832 10.0091 19.8323 10.3402C21.0948 10.761 21.9985 11.9373 22.0779 13.2618C22.0882 13.455 22.0848 13.5999 22.0675 13.5999C22.0503 13.5999 21.9399 13.5688 21.8261 13.5343C21.6053 13.4654 21.4915 13.4688 21.3914 13.555C21.25 13.6792 21.2707 13.7551 21.7226 14.8658C21.9882 15.5177 22.1848 15.9524 22.2297 15.9869C22.3849 16.1179 22.4711 16.08 23.468 15.4453C23.9888 15.1107 24.4373 14.8141 24.458 14.783C24.5132 14.714 24.5166 14.5174 24.4683 14.4277C24.4476 14.3863 24.3096 14.3243 24.0958 14.2518L23.7612 14.1414V13.4826C23.7577 12.7513 23.7198 12.4685 23.5335 11.9062C22.954 10.147 21.457 8.86041 19.6254 8.54651C19.2528 8.48442 18.356 8.48442 17.9834 8.54651ZM19.5391 9.13291C20.3635 9.27089 21.2017 9.69171 21.8226 10.285C22.8402 11.2577 23.3231 12.6065 23.1575 14.0311C23.1058 14.4933 23.1299 14.5692 23.3645 14.6382C23.4404 14.6623 23.5025 14.6899 23.5025 14.7002C23.5025 14.7106 23.3335 14.8244 23.1299 14.952C22.9264 15.0831 22.7126 15.2177 22.6539 15.2556L22.5504 15.3211L22.3504 14.8313C22.24 14.5623 22.1434 14.3243 22.1331 14.3036C22.1227 14.276 22.171 14.2691 22.2848 14.2794C22.5987 14.3105 22.6677 14.169 22.6712 13.4757C22.6781 12.4512 22.3021 11.5164 21.5846 10.7714C21.0948 10.2643 20.4912 9.90558 19.8116 9.71586C19.3322 9.58478 18.5319 9.56064 18.0214 9.66757C17.5764 9.75725 17.2315 9.88833 16.8313 10.116L16.5243 10.2919L16.4243 10.1953C16.3691 10.1436 16.2932 10.0573 16.2587 10.0091L16.1932 9.92282L16.4105 9.7814C17.3246 9.18465 18.4388 8.95354 19.5391 9.13291Z" fill="white"/>
<path d="M12.3677 9.9436C11.5157 10.1713 10.8189 10.8749 10.6016 11.7235C10.5602 11.8856 10.5326 12.1029 10.5326 12.2788V12.5651H10.3705C9.8117 12.5686 9.19771 12.8997 8.85277 13.3827C8.61131 13.7207 8.49748 14.0829 8.49748 14.5141C8.49748 15.1143 8.66305 15.5247 9.06663 15.9283C9.48056 16.3422 9.89104 16.4975 10.574 16.4975H10.9811V17.5323C10.9811 18.5223 10.9845 18.5706 11.05 18.6361C11.119 18.7051 11.1639 18.7051 13.1887 18.7051C15.2135 18.7051 15.2583 18.7051 15.3273 18.6361C15.3928 18.5706 15.3963 18.5223 15.3963 17.5323V16.4975H15.7343C15.9206 16.4975 16.162 16.4733 16.2759 16.4457C16.8692 16.2974 17.4107 15.8559 17.666 15.3212C17.8523 14.9314 17.8936 14.7279 17.873 14.2519C17.8592 13.9173 17.8419 13.8173 17.7488 13.5827C17.5625 13.1136 17.1727 12.6824 16.7346 12.4582C16.5001 12.3375 16.2931 12.3823 16.231 12.5651C16.1655 12.7445 16.2345 12.8583 16.5001 13.0136C16.7864 13.1826 17.0278 13.4413 17.1693 13.7379C17.2693 13.9484 17.2762 13.9863 17.2762 14.3588C17.2762 14.7452 17.2728 14.7624 17.152 15.0142C16.8657 15.6144 16.2966 15.9387 15.5274 15.9456H15.3963V14.9107C15.3963 13.9208 15.3928 13.8725 15.3273 13.8069C15.2583 13.7379 15.2135 13.7379 13.1887 13.7379C11.1639 13.7379 11.119 13.7379 11.05 13.8069C10.9845 13.8725 10.9811 13.9208 10.9811 14.9107V15.9456H10.7672C10.4326 15.9421 10.0877 15.8835 9.88759 15.7903C9.62544 15.6731 9.34603 15.3937 9.21151 15.1212C9.10803 14.9107 9.10113 14.8693 9.10113 14.5313C9.10113 14.2105 9.11148 14.145 9.19426 13.9725C9.36673 13.6069 9.70822 13.3137 10.1015 13.1998C10.2636 13.155 10.3809 13.1481 10.6534 13.1619C11.0328 13.186 11.088 13.1688 11.1535 12.9998C11.1742 12.9377 11.1777 12.8583 11.1535 12.7618C11.1052 12.5479 11.1121 12.0926 11.1708 11.8787C11.3294 11.282 11.7986 10.768 12.3781 10.5576C12.6333 10.4679 13.1507 10.4334 13.4267 10.4955C13.7682 10.5679 14.1062 10.7542 14.358 11.0095C14.734 11.3889 14.9203 11.8235 14.9203 12.334C14.9203 12.7997 14.9996 12.9032 15.3307 12.8583C15.6998 12.8066 15.8171 12.5238 15.5688 12.2857C15.5308 12.2478 15.5032 12.1478 15.4894 12.0098C15.4653 11.7338 15.3342 11.3441 15.1824 11.0888C15.0168 10.806 14.6305 10.4127 14.3477 10.2368C14.2131 10.154 13.9786 10.0436 13.8268 9.99189C13.4508 9.86082 12.754 9.84012 12.3677 9.9436ZM14.8444 15.1177V15.9456H13.1887H11.533V15.1177V14.2898H13.1887H14.8444V15.1177ZM14.8444 17.3253V18.1532H13.1887H11.533V17.3253V16.4975H13.1887H14.8444V17.3253Z" fill="white"/>
<path d="M12.4298 14.9106C12.3849 14.9555 12.3608 15.0245 12.3608 15.1176C12.3608 15.2107 12.3849 15.2797 12.4298 15.3246C12.4953 15.3901 12.5436 15.3936 13.1886 15.3936C13.8337 15.3936 13.882 15.3901 13.9475 15.3246C13.9923 15.2797 14.0165 15.2107 14.0165 15.1176C14.0165 15.0245 13.9923 14.9555 13.9475 14.9106C13.882 14.8451 13.8337 14.8417 13.1886 14.8417C12.5436 14.8417 12.4953 14.8451 12.4298 14.9106Z" fill="white"/>
<path d="M12.4298 17.1182C12.3849 17.163 12.3608 17.232 12.3608 17.3251C12.3608 17.4183 12.3849 17.4872 12.4298 17.5321C12.4953 17.5976 12.5436 17.6011 13.1886 17.6011C13.8337 17.6011 13.882 17.5976 13.9475 17.5321C13.9923 17.4872 14.0165 17.4183 14.0165 17.3251C14.0165 17.232 13.9923 17.163 13.9475 17.1182C13.882 17.0526 13.8337 17.0492 13.1886 17.0492C12.5436 17.0492 12.4953 17.0526 12.4298 17.1182Z" fill="white"/>
<path d="M18.9906 15.7385C18.1386 15.9662 17.4418 16.6699 17.2245 17.5184C17.1831 17.6805 17.1555 17.8978 17.1555 18.0738V18.3601H16.9934C16.4346 18.3635 15.8206 18.6947 15.4756 19.1776C15.2342 19.5156 15.1203 19.8778 15.1203 20.309C15.1203 20.9092 15.2859 21.3197 15.6895 21.7232C16.1034 22.1372 16.5139 22.2924 17.1969 22.2924H17.6039V23.3272C17.6039 24.3172 17.6073 24.3655 17.6729 24.431C17.7419 24.5 17.7867 24.5 19.8115 24.5C21.8363 24.5 21.8812 24.5 21.9501 24.431C22.0157 24.3655 22.0191 24.3172 22.0191 23.3272V22.2924H22.3572C22.5434 22.2924 22.7849 22.2682 22.8987 22.2406C23.492 22.0923 24.0336 21.6508 24.2888 21.1161C24.4751 20.7264 24.5165 20.5228 24.4958 20.0468C24.482 19.7364 24.4613 19.6053 24.3889 19.4225C24.1474 18.7981 23.6369 18.3118 23.0195 18.1152C22.8953 18.0772 22.6469 18.0358 22.4641 18.0255L22.133 18.0048L22.1123 17.7875C22.0674 17.3149 21.8398 16.8492 21.4534 16.4388C21.1706 16.1387 20.8291 15.9179 20.4497 15.7868C20.0737 15.6557 19.3769 15.635 18.9906 15.7385ZM20.122 16.3077C20.4428 16.3939 20.7429 16.5664 20.9843 16.8078C21.3568 17.1804 21.5431 17.6184 21.5431 18.129C21.5431 18.6153 21.6259 18.7119 21.9984 18.6429C22.4227 18.5636 22.7263 18.6084 23.0988 18.7981C23.3851 18.9499 23.6472 19.2259 23.7921 19.5329C23.8922 19.7433 23.8991 19.7812 23.8991 20.1538C23.8991 20.5401 23.8956 20.5573 23.7749 20.8091C23.4886 21.4093 22.9194 21.7336 22.1502 21.7405H22.0191V20.7057C22.0191 19.7157 22.0157 19.6674 21.9501 19.6019C21.8846 19.5363 21.8363 19.5329 21.1913 19.5329C20.5462 19.5329 20.4979 19.5363 20.4324 19.6019C20.3876 19.6467 20.3634 19.7157 20.3634 19.8088C20.3634 19.902 20.3876 19.9709 20.4324 20.0158C20.4945 20.0779 20.5462 20.0848 20.9843 20.0848H21.4672V20.9126V21.7405H19.8115H18.1558V20.9126V20.0848H18.9147C19.6287 20.0848 19.677 20.0813 19.7425 20.0158C19.7874 19.9709 19.8115 19.902 19.8115 19.8088C19.8115 19.7157 19.7874 19.6467 19.7425 19.6019C19.677 19.5363 19.6287 19.5329 18.7077 19.5329C17.7867 19.5329 17.7384 19.5363 17.6729 19.6019C17.6073 19.6674 17.6039 19.7157 17.6039 20.7057V21.7405H17.39C17.0554 21.737 16.7105 21.6784 16.5104 21.5853C16.2483 21.468 15.9689 21.1886 15.8344 20.9161C15.7309 20.7057 15.724 20.6643 15.724 20.3262C15.724 20.0054 15.7343 19.9399 15.8171 19.7674C15.9896 19.4018 16.3311 19.1086 16.7243 18.9948C16.8864 18.9499 17.0037 18.943 17.2762 18.9568C17.6556 18.981 17.7108 18.9637 17.7764 18.7947C17.7971 18.7326 17.8005 18.6533 17.7764 18.5567C17.7281 18.3428 17.735 17.8875 17.7936 17.6736C17.9695 17.0114 18.48 16.4974 19.1561 16.3042C19.37 16.2456 19.8943 16.2456 20.122 16.3077ZM21.4672 23.1202V23.9481H19.8115H18.1558V23.1202V22.2924H19.8115H21.4672V23.1202Z" fill="white"/>
<path d="M19.0526 20.7056C19.0078 20.7504 18.9836 20.8194 18.9836 20.9125C18.9836 21.0057 19.0078 21.0746 19.0526 21.1195C19.1182 21.185 19.1664 21.1885 19.8115 21.1885C20.4565 21.1885 20.5048 21.185 20.5704 21.1195C20.6152 21.0746 20.6393 21.0057 20.6393 20.9125C20.6393 20.8194 20.6152 20.7504 20.5704 20.7056C20.5048 20.64 20.4565 20.6366 19.8115 20.6366C19.1664 20.6366 19.1182 20.64 19.0526 20.7056Z" fill="white"/>
<path d="M19.0526 22.9131C19.0078 22.9579 18.9836 23.0269 18.9836 23.12C18.9836 23.2132 19.0078 23.2822 19.0526 23.327C19.1182 23.3925 19.1664 23.396 19.8115 23.396C20.4565 23.396 20.5048 23.3925 20.5704 23.327C20.6152 23.2822 20.6393 23.2132 20.6393 23.12C20.6393 23.0269 20.6152 22.9579 20.5704 22.9131C20.5048 22.8475 20.4565 22.8441 19.8115 22.8441C19.1664 22.8441 19.1182 22.8475 19.0526 22.9131Z" fill="white"/>
</svg>
