<svg width="33" height="33" viewBox="0 0 33 33" fill="none" xmlns="http://www.w3.org/2000/svg">
<rect width="33" height="33" rx="2" fill="#D9D9D9"/>
<rect width="33" height="33" rx="2" fill="#AF5198"/>
<path d="M12.9453 9.5495C12.6415 9.6605 12.4195 9.86205 12.2706 10.1658C12.1975 10.3148 12.1917 10.3557 12.1829 10.7851C12.1713 11.2145 12.1742 11.2437 12.2326 11.3021C12.3115 11.381 12.5043 11.3868 12.5831 11.3079C12.6269 11.2641 12.6386 11.194 12.6503 10.8932C12.6678 10.4901 12.7058 10.3586 12.8577 10.2009C12.9103 10.1454 13.0037 10.0753 13.068 10.0402L13.1848 9.97597H15.8868C18.8662 9.97597 18.7172 9.96721 18.9334 10.1629C19.1174 10.3265 19.1641 10.4696 19.1817 10.8932C19.1933 11.194 19.205 11.2641 19.2488 11.3079C19.3277 11.3868 19.5205 11.381 19.5994 11.3021C19.6578 11.2437 19.6607 11.2145 19.649 10.7851C19.6403 10.3469 19.6373 10.3177 19.5556 10.1512C19.4446 9.92631 19.2226 9.70432 18.9976 9.59332L18.8224 9.50861L15.9598 9.50277C13.2257 9.49693 13.0914 9.49693 12.9453 9.5495Z" fill="white"/>
<path d="M15.0396 10.4871C15.0017 10.525 14.9812 10.5834 14.9812 10.6623C14.9812 10.7412 15.0017 10.7996 15.0396 10.8376C15.0951 10.8931 15.136 10.896 15.9159 10.896C16.6958 10.896 16.7367 10.8931 16.7922 10.8376C16.8302 10.7996 16.8507 10.7412 16.8507 10.6623C16.8507 10.5834 16.8302 10.525 16.7922 10.4871C16.7367 10.4316 16.6958 10.4286 15.9159 10.4286C15.136 10.4286 15.0951 10.4316 15.0396 10.4871Z" fill="white"/>
<path d="M12.4402 11.8893C11.1462 12.1668 10.1589 13.1541 9.89893 14.4305C9.82007 14.822 9.82007 15.3828 9.89893 15.7742C10.1618 17.0565 11.152 18.0467 12.4548 18.3184C12.8199 18.3943 13.4012 18.3943 13.7839 18.3155C15.0662 18.0526 16.0564 17.0624 16.3281 15.7596C16.404 15.4003 16.404 14.8044 16.3281 14.4452C16.0564 13.1424 15.0662 12.1522 13.7839 11.8893C13.4071 11.8133 12.7966 11.8133 12.4402 11.8893ZM13.5911 12.3596C14.6047 12.5231 15.4722 13.303 15.7906 14.3342C15.8636 14.5708 15.8695 14.6292 15.8695 15.1024C15.8695 15.5785 15.8636 15.6311 15.7877 15.8764C15.6971 16.1685 15.5277 16.5132 15.3641 16.7323L15.256 16.8813L15.2005 16.779C15.0691 16.5337 14.704 16.2386 14.3827 16.116C14.2162 16.0546 14.1636 16.0517 13.1734 16.0429C12.1773 16.0342 12.1335 16.0371 11.9232 16.0984C11.5668 16.2065 11.1725 16.5045 11.0235 16.779L10.968 16.8813L10.8599 16.7323C10.6934 16.5103 10.524 16.1656 10.4364 15.8764C10.3429 15.5551 10.3079 14.9914 10.3663 14.6467C10.5269 13.6419 11.2864 12.7656 12.2649 12.4501C12.7031 12.3099 13.1003 12.2836 13.5911 12.3596ZM13.9416 16.5307C14.3126 16.5804 14.6485 16.8082 14.8208 17.1296L14.8792 17.2376L14.7975 17.3077C14.5813 17.4976 14.0935 17.7196 13.7108 17.8072C13.3924 17.8803 12.8316 17.8803 12.5132 17.8072C12.1306 17.7196 11.6428 17.4976 11.4266 17.3077L11.3448 17.2376L11.4032 17.1296C11.5668 16.8199 11.9173 16.5775 12.2562 16.5337C12.4986 16.5015 13.7021 16.5015 13.9416 16.5307Z" fill="white"/>
<path d="M12.7121 13.288C12.4054 13.4019 12.1863 13.6005 12.0374 13.9043C11.9643 14.0504 11.9585 14.0942 11.9585 14.4009C11.9585 14.7134 11.9643 14.7485 12.0432 14.9121C12.1542 15.137 12.3762 15.359 12.6011 15.47C12.7647 15.5488 12.7997 15.5547 13.1123 15.5547C13.4248 15.5547 13.4599 15.5488 13.6235 15.47C13.8484 15.359 14.0704 15.137 14.1814 14.9121C14.2602 14.7485 14.2661 14.7134 14.2661 14.4009C14.2661 14.0883 14.2602 14.0533 14.1814 13.8897C14.0704 13.6648 13.8484 13.4428 13.6235 13.3347C13.4716 13.2588 13.4102 13.2471 13.1561 13.2383C12.9253 13.2325 12.8319 13.2442 12.7121 13.288ZM13.3693 13.7758C13.6176 13.878 13.7841 14.1263 13.7841 14.4009C13.7841 14.7777 13.4891 15.0727 13.1123 15.0727C12.7355 15.0727 12.4405 14.7777 12.4405 14.4009C12.4405 14.138 12.5894 13.9072 12.8348 13.7787C12.9487 13.7174 13.2291 13.7174 13.3693 13.7758Z" fill="white"/>
<path d="M17.8791 11.8921C17.5403 12.0235 17.3183 12.3682 17.3183 12.7655C17.3183 13.1452 17.5052 13.4548 17.8295 13.6126L17.9755 13.6856L19.6142 13.6943C21.2237 13.7002 21.2587 13.7002 21.4194 13.6388C22.1818 13.3555 22.1818 12.1754 21.4223 11.8921C21.2646 11.8337 21.212 11.8307 19.6463 11.8337C18.0982 11.8337 18.0281 11.8366 17.8791 11.8921ZM21.2616 12.3741C21.5742 12.5581 21.5742 12.9729 21.2616 13.1569C21.1623 13.2153 21.1214 13.2182 19.6551 13.2182C18.1888 13.2182 18.1479 13.2153 18.0485 13.1569C17.6805 12.9436 17.7594 12.4266 18.1742 12.3244C18.2238 12.3127 18.919 12.304 19.7135 12.3069C21.1156 12.3127 21.1623 12.3156 21.2616 12.3741Z" fill="white"/>
<path d="M19.2577 14.2083C19.2022 14.2492 19.2022 14.3339 19.1876 18.3649C19.173 22.4601 19.173 22.4776 19.1116 22.6091C19.0386 22.7668 18.8575 22.9392 18.7027 22.9917C18.5333 23.0531 13.2988 23.0531 13.1294 22.9917C12.9746 22.9392 12.7935 22.7668 12.7205 22.6091C12.662 22.4806 12.6591 22.4251 12.6445 20.7017C12.6299 18.9841 12.627 18.9228 12.5744 18.8819C12.4868 18.8206 12.3057 18.8293 12.2356 18.8994C12.1772 18.9578 12.1742 18.9841 12.183 20.8214L12.1918 22.6821L12.2765 22.8574C12.3875 23.0823 12.6095 23.3043 12.8344 23.4153L13.0096 23.5H15.916H18.8224L18.9977 23.4153C19.2226 23.3043 19.4446 23.0823 19.5556 22.8574C19.6403 22.685 19.6403 22.6763 19.6491 22.1067C19.6578 21.54 19.6608 21.5342 19.7163 21.5897C19.763 21.6364 19.8156 21.6452 20.0872 21.6452C20.4816 21.6452 20.4845 21.6422 20.578 21.2158C20.6159 21.0464 20.651 20.9032 20.6568 20.9003C20.6597 20.8974 20.7707 20.8536 20.9022 20.801L21.1446 20.7046L21.4017 20.8682C21.7873 21.1106 21.8077 21.1077 22.1904 20.7309C22.3569 20.5673 22.5146 20.3921 22.535 20.3395C22.5847 20.2226 22.5642 20.1584 22.3656 19.8575L22.2196 19.6297L22.316 19.3902C22.3685 19.2558 22.4153 19.1448 22.4182 19.1389C22.4211 19.1331 22.5672 19.0981 22.7424 19.0572C23.1747 18.9608 23.1601 18.9871 23.1601 18.359C23.1601 17.9063 23.1543 17.8508 23.1075 17.807C23.0754 17.7807 22.9118 17.7281 22.7366 17.6872C22.5642 17.6492 22.4211 17.6142 22.4182 17.6083C22.4153 17.6025 22.3685 17.4915 22.316 17.3601L22.2196 17.1205L22.3773 16.8635C22.4678 16.7233 22.5467 16.5831 22.5555 16.5539C22.5905 16.4545 22.4971 16.3143 22.1904 16.0135C21.8077 15.6396 21.7873 15.6367 21.4017 15.8791L21.1417 16.0427L20.9022 15.9463C20.7707 15.8937 20.6597 15.847 20.6568 15.847C20.651 15.8441 20.6159 15.7009 20.578 15.5315C20.4845 15.105 20.4816 15.1021 20.0872 15.1021C19.8097 15.1021 19.7659 15.108 19.7133 15.1605L19.6549 15.219V14.7516C19.6549 14.3222 19.6491 14.2784 19.5965 14.2258C19.5264 14.1557 19.3424 14.147 19.2577 14.2083ZM19.9266 15.5695H20.0814L20.1369 15.8499C20.1661 16.0047 20.2158 16.1624 20.245 16.1975C20.2742 16.2384 20.3793 16.291 20.4903 16.3289C20.5984 16.364 20.7766 16.437 20.8847 16.4925C20.9957 16.548 21.1154 16.5918 21.1534 16.5918C21.1914 16.5918 21.2848 16.5509 21.3666 16.5013C21.4455 16.4487 21.5565 16.3786 21.6149 16.3406L21.7201 16.2734L21.8544 16.4107L21.9859 16.548L21.8281 16.7934C21.7405 16.9307 21.6704 17.0709 21.6704 17.1089C21.6704 17.1468 21.7142 17.2666 21.7697 17.3747C21.8223 17.4827 21.8953 17.6551 21.9304 17.7602C21.9654 17.8654 22.0034 17.9647 22.0151 17.9822C22.0501 18.0377 22.1436 18.0728 22.4094 18.1254L22.6636 18.1779V18.3736V18.5694L22.4094 18.6219C22.1436 18.6745 22.0501 18.7096 22.0151 18.7651C22.0034 18.7826 21.9654 18.8819 21.9304 18.9871C21.8953 19.0922 21.8223 19.2645 21.7697 19.3726C21.7142 19.4807 21.6704 19.6005 21.6704 19.6384C21.6704 19.6764 21.7405 19.8166 21.8281 19.9539L21.9859 20.1993L21.8544 20.3366L21.7201 20.4738L21.6149 20.4067C21.5565 20.3687 21.4455 20.2986 21.3666 20.246C21.2848 20.1963 21.1914 20.1555 21.1534 20.1555C21.1154 20.1555 20.9957 20.1993 20.8847 20.2548C20.7766 20.3103 20.5984 20.3833 20.4903 20.4183C20.3793 20.4563 20.2742 20.5089 20.245 20.5498C20.2158 20.5848 20.1661 20.7426 20.1369 20.8974L20.0814 21.1778H19.9266C19.8097 21.1778 19.7572 21.1924 19.7133 21.2362L19.6549 21.2946L19.6608 19.3902L19.6695 17.4827L19.9178 17.4857C20.2041 17.4857 20.3414 17.5412 20.5312 17.731C20.7299 17.9297 20.7795 18.0553 20.7795 18.3736C20.7795 18.5898 20.7678 18.6745 20.724 18.7534C20.6247 18.9403 20.4962 19.0776 20.3414 19.1652C20.1719 19.2616 20.1077 19.3668 20.1398 19.4953C20.1603 19.5859 20.28 19.6881 20.3647 19.6881C20.5371 19.6881 20.9168 19.3989 21.0804 19.1389C21.3491 18.7212 21.3666 18.0932 21.1213 17.6726C20.8642 17.2257 20.4202 16.9716 19.9003 16.9716H19.6549V16.2121V15.4526L19.7133 15.5111C19.7572 15.5549 19.8097 15.5695 19.9266 15.5695Z" fill="white"/>
<path d="M10.8509 19.3112C10.7867 19.3609 10.775 19.3959 10.775 19.5098C10.775 19.6617 10.8217 19.7289 10.9561 19.761C11.1109 19.799 11.2394 19.6793 11.2423 19.4923C11.2423 19.3959 11.2277 19.3579 11.1664 19.3112C11.1226 19.2762 11.0525 19.2499 11.0087 19.2499C10.9648 19.2499 10.8947 19.2762 10.8509 19.3112Z" fill="white"/>
<path d="M13.6378 19.3669C13.5998 19.4049 13.5793 19.4633 13.5793 19.5422C13.5793 19.6211 13.5998 19.6795 13.6378 19.7175C13.6962 19.7759 13.7342 19.7759 15.9161 19.7759C18.0981 19.7759 18.1361 19.7759 18.1945 19.7175C18.2325 19.6795 18.2529 19.6211 18.2529 19.5422C18.2529 19.4633 18.2325 19.4049 18.1945 19.3669C18.1361 19.3085 18.0981 19.3085 15.9161 19.3085C13.7342 19.3085 13.6962 19.3085 13.6378 19.3669Z" fill="white"/>
<path d="M10.8509 20.2463C10.7867 20.2959 10.775 20.331 10.775 20.4449C10.775 20.5968 10.8217 20.664 10.9561 20.6961C11.1109 20.7341 11.2394 20.6143 11.2423 20.4274C11.2423 20.331 11.2277 20.293 11.1664 20.2463C11.1226 20.2112 11.0525 20.1849 11.0087 20.1849C10.9648 20.1849 10.8947 20.2112 10.8509 20.2463Z" fill="white"/>
<path d="M13.6378 20.3015C13.5998 20.3395 13.5793 20.3979 13.5793 20.4768C13.5793 20.5556 13.5998 20.6141 13.6378 20.652C13.6933 20.7075 13.7342 20.7104 14.7477 20.7104C15.7613 20.7104 15.8022 20.7075 15.8577 20.652C15.8957 20.6141 15.9161 20.5556 15.9161 20.4768C15.9161 20.3979 15.8957 20.3395 15.8577 20.3015C15.8022 20.246 15.7613 20.2431 14.7477 20.2431C13.7342 20.2431 13.6933 20.246 13.6378 20.3015Z" fill="white"/>
<path d="M10.8509 21.1808C10.7867 21.2305 10.775 21.2655 10.775 21.3795C10.775 21.5314 10.8217 21.5985 10.9561 21.6307C11.1109 21.6686 11.2394 21.5489 11.2423 21.3619C11.2423 21.2655 11.2277 21.2276 11.1664 21.1808C11.1226 21.1458 11.0525 21.1195 11.0087 21.1195C10.9648 21.1195 10.8947 21.1458 10.8509 21.1808Z" fill="white"/>
<path d="M13.6378 21.2361C13.5998 21.2741 13.5793 21.3325 13.5793 21.4113C13.5793 21.4902 13.5998 21.5486 13.6378 21.5866C13.6962 21.645 13.7342 21.645 15.4488 21.645C17.1634 21.645 17.2014 21.645 17.2598 21.5866C17.2978 21.5486 17.3182 21.4902 17.3182 21.4113C17.3182 21.3325 17.2978 21.2741 17.2598 21.2361C17.2014 21.1777 17.1634 21.1777 15.4488 21.1777C13.7342 21.1777 13.6962 21.1777 13.6378 21.2361Z" fill="white"/>
</svg>
