<svg width="33" height="33" viewBox="0 0 33 33" fill="none" xmlns="http://www.w3.org/2000/svg">
<rect width="33" height="33" rx="2" fill="#D9D9D9"/>
<rect width="33" height="33" rx="2" fill="#5934E0"/>
<path d="M10.59 10.271C10.4062 10.3305 10.263 10.4332 10.1575 10.5872C9.98724 10.8332 9.99535 10.5575 10.0035 15.7232L10.0116 20.4239L10.0873 20.5779C10.1846 20.778 10.39 20.9645 10.5738 21.0185C10.6927 21.0537 11.0766 21.0591 13.3634 21.0591C15.9962 21.0591 16.0152 21.0591 16.0746 21.005C16.1557 20.9293 16.1557 20.7617 16.0773 20.6915C16.0233 20.6428 15.9287 20.6401 13.3634 20.6266C10.7306 20.6131 10.7036 20.6131 10.6306 20.5563C10.59 20.5266 10.5306 20.4671 10.5008 20.4266C10.4441 20.3536 10.4441 20.3509 10.436 15.6853L10.4305 11.017L10.49 10.8954C10.536 10.8062 10.5846 10.7575 10.6738 10.7116L10.7955 10.6521L16.545 10.6575L22.2945 10.6656L22.3702 10.7224C22.4107 10.7521 22.4729 10.8197 22.508 10.8684L22.5675 10.9576V13.8012C22.5675 16.6368 22.5675 16.6449 22.6243 16.7179C22.6945 16.8071 22.8621 16.8179 22.9459 16.7341C23 16.6801 23 16.6557 22.9946 13.7526L22.9865 10.8278L22.9243 10.7035C22.8405 10.5332 22.6918 10.3872 22.5134 10.3034L22.3648 10.2331L16.5531 10.2277C11.0171 10.2223 10.7333 10.225 10.59 10.271Z" fill="white"/>
<path d="M11.3388 11.2093C11.2117 11.339 11.255 11.5526 11.428 11.6256C11.6118 11.7013 11.8064 11.5391 11.7713 11.339C11.7334 11.1471 11.4793 11.0687 11.3388 11.2093Z" fill="white"/>
<path d="M12.3362 11.2279C12.2334 11.3306 12.2199 11.3982 12.2821 11.5172C12.4037 11.7523 12.7551 11.6685 12.7551 11.4063C12.7551 11.2712 12.6659 11.1685 12.5335 11.1468C12.4443 11.1333 12.4227 11.1414 12.3362 11.2279Z" fill="white"/>
<path d="M13.3121 11.2361C13.1851 11.3659 13.2283 11.5794 13.4013 11.6524C13.5851 11.7281 13.7797 11.5659 13.7446 11.3659C13.7068 11.174 13.4527 11.0956 13.3121 11.2361Z" fill="white"/>
<path d="M10.9253 12.0905C10.8496 12.1257 10.8009 12.2473 10.8253 12.3392C10.8658 12.5014 10.4387 12.4906 16.5261 12.4906H22.0999L22.1567 12.4284C22.2378 12.3419 22.2351 12.2094 22.1486 12.1257L22.0837 12.0581L16.5342 12.0608C12.7066 12.0608 10.9658 12.0716 10.9253 12.0905Z" fill="white"/>
<path d="M11.6307 13.6824C11.5821 13.7365 11.5794 13.8284 11.5712 16.5017C11.5685 18.0182 11.5712 19.2886 11.5794 19.3238C11.6199 19.4887 11.828 19.5481 11.9389 19.4292L11.9983 19.367V16.7126V14.0581H13.4445H14.8907V16.7153V19.3751L14.9528 19.4319C15.0312 19.5049 15.161 19.5076 15.2448 19.44L15.3096 19.3887L15.3178 16.5774L15.3232 13.7689L15.2664 13.6986L15.2123 13.6256H13.4472C11.6875 13.6256 11.6821 13.6256 11.6307 13.6824Z" fill="white"/>
<path d="M16.0854 13.6876C15.9638 13.8146 16.0395 14.012 16.2206 14.0444C16.2692 14.0525 17.1099 14.0579 18.0884 14.0525L19.8698 14.0444L19.9347 13.9687C20.0131 13.8768 20.0185 13.7903 19.9428 13.6957L19.8887 13.6254H18.0155H16.1422L16.0854 13.6876Z" fill="white"/>
<path d="M16.0935 14.5584C16.0502 14.599 16.0259 14.6557 16.0259 14.7071C16.0259 14.7585 16.0502 14.8152 16.0935 14.8558L16.1584 14.9233H17.0261C17.8559 14.9233 17.8938 14.9206 17.9451 14.8693C18.0289 14.7855 18.0181 14.6179 17.9289 14.5476C17.8586 14.4935 17.8262 14.4908 17.0071 14.4908H16.1584L16.0935 14.5584Z" fill="white"/>
<path d="M16.0826 15.453C15.9772 15.5855 16.034 15.7612 16.1934 15.8017C16.2286 15.8098 16.6232 15.8152 17.0693 15.8098C17.8288 15.8017 17.8883 15.799 17.9424 15.7504C18.018 15.6801 18.0207 15.5125 17.9451 15.4368C17.8937 15.3854 17.8559 15.3827 17.0152 15.3827H16.1367L16.0826 15.453Z" fill="white"/>
<path d="M19.5481 16.045C19.3616 16.0963 19.294 16.1315 18.5398 16.5667C17.3505 17.2505 17.2883 17.2911 17.1477 17.4398C16.9774 17.6209 16.9126 17.7263 16.8342 17.9507C16.772 18.1237 16.7693 18.1534 16.7612 19.3022C16.7504 20.5943 16.7639 20.7349 16.9099 21.0322C17.0072 21.2268 17.3153 21.5323 17.5397 21.6566C17.637 21.708 17.9235 21.8729 18.1749 22.0188C19.5319 22.8027 19.4616 22.773 19.8914 22.773C20.1644 22.7757 20.2212 22.7676 20.3644 22.7054C20.5077 22.6459 20.9456 22.4 22.1485 21.6999C22.6296 21.4214 22.8594 21.1592 22.9594 20.7754C22.9919 20.6429 23 20.4051 23 19.3968C23 18.0777 22.9946 18.0372 22.8459 17.7371C22.6945 17.4317 22.5377 17.3154 21.4592 16.6937C20.9159 16.3829 20.405 16.1044 20.3239 16.0774C20.1266 16.0071 19.7346 15.9909 19.5481 16.045ZM20.1212 16.4721C20.1968 16.491 20.5293 16.6667 20.8645 16.8586C21.1997 17.0532 21.6295 17.3019 21.8241 17.4127C22.2107 17.6344 22.3864 17.7885 22.4864 17.9912L22.554 18.1264V19.3968V20.6673L22.481 20.8078C22.3296 21.0944 22.3701 21.0646 21.0267 21.8431C20.2212 22.3108 20.1698 22.3351 19.9563 22.3486C19.8184 22.3594 19.7319 22.3486 19.6211 22.3108C19.3886 22.2324 17.6289 21.2079 17.4802 21.0646C17.4072 20.9943 17.3207 20.8727 17.2775 20.7781L17.2018 20.6132V19.3968V18.1804L17.2721 18.029C17.4099 17.7371 17.464 17.6939 18.3641 17.1749C18.5425 17.0721 18.8642 16.8856 19.0805 16.7586C19.64 16.4342 19.8076 16.3883 20.1212 16.4721Z" fill="white"/>
<path d="M18.8075 18.4183C18.7669 18.4372 18.5399 18.6372 18.302 18.8643C17.8668 19.2833 17.8154 19.3535 17.8641 19.4752C17.8992 19.5671 18.621 20.3564 18.6939 20.3861C18.8399 20.4402 18.9724 20.3402 18.9724 20.1753C18.9724 20.0888 18.9021 19.9969 18.4372 19.486L18.3696 19.413L18.7264 19.0697C18.921 18.8832 19.0886 18.6994 19.0967 18.6643C19.121 18.5642 19.0589 18.4453 18.967 18.4129C18.921 18.3966 18.8832 18.3831 18.8805 18.3831C18.8778 18.3858 18.8453 18.3993 18.8075 18.4183Z" fill="white"/>
<path d="M20.0699 18.4181C19.9996 18.4478 19.9482 18.5478 19.6157 19.2858C19.4103 19.7453 19.2427 20.1507 19.2427 20.1913C19.2427 20.4157 19.5536 20.4832 19.6482 20.2805C19.6671 20.24 19.7968 19.9507 19.9374 19.6399C20.4348 18.5424 20.4186 18.5911 20.3185 18.4802C20.2402 18.3964 20.1672 18.3775 20.0699 18.4181Z" fill="white"/>
<path d="M20.7916 18.4239C20.7024 18.4617 20.6754 18.5104 20.6754 18.6347C20.6754 18.705 20.724 18.7645 21.0295 19.0564L21.3836 19.397L21.0295 19.7376C20.6916 20.0619 20.6754 20.0836 20.6754 20.1863C20.6754 20.3431 20.8078 20.4404 20.9511 20.3863C20.9862 20.3728 21.1727 20.2106 21.3646 20.0268C21.5566 19.8457 21.7593 19.6511 21.8161 19.597C21.8972 19.5186 21.9188 19.4781 21.9188 19.4024C21.9188 19.3132 21.889 19.2753 21.5755 18.9699C20.9619 18.3752 20.9403 18.3617 20.7916 18.4239Z" fill="white"/>
</svg>
