<svg width="33" height="33" viewBox="0 0 33 33" fill="none" xmlns="http://www.w3.org/2000/svg">
<rect width="33" height="33" rx="2" fill="#D9D9D9"/>
<rect width="33" height="33" rx="2" fill="#B9204B"/>
<path d="M16.2843 9.53442C16.1352 9.58606 16.0089 9.70369 15.9372 9.85574C15.8196 10.1053 15.8569 10.3463 16.0462 10.55C16.1093 10.6189 16.1839 10.682 16.2155 10.6906C16.2671 10.7078 16.27 10.748 16.27 11.6345V12.5612L16.336 12.6214C16.4278 12.7075 16.5856 12.7046 16.6659 12.6186C16.729 12.5526 16.729 12.5382 16.729 11.6316C16.729 10.748 16.7319 10.7078 16.7835 10.6906C16.8151 10.682 16.8897 10.6189 16.9528 10.55C17.1422 10.3463 17.1795 10.1053 17.0618 9.85574C16.927 9.56885 16.5885 9.42827 16.2843 9.53442ZM16.6229 10.0508C16.6774 10.1226 16.6774 10.1312 16.6315 10.2C16.5712 10.2976 16.4364 10.3004 16.3733 10.2115C16.3159 10.1283 16.3159 10.1254 16.3876 10.0336C16.4622 9.93894 16.5454 9.94468 16.6229 10.0508Z" fill="white"/>
<path d="M12.8984 10.5932C12.7606 10.6334 12.5799 10.8056 12.5225 10.949C12.4508 11.1384 12.4795 11.3937 12.5885 11.5486C12.8467 11.9158 13.4119 11.8986 13.6357 11.5199L13.6931 11.4224H14.2496H14.8062V11.9904C14.8062 12.5499 14.8062 12.5614 14.8722 12.6216C14.964 12.7077 15.1046 12.7048 15.1935 12.613L15.2653 12.5442V11.824V11.1039L15.1935 11.0351L15.1247 10.9633H14.4046C13.9484 10.9633 13.6873 10.9519 13.6873 10.9347C13.6873 10.8773 13.4693 10.665 13.3574 10.6162C13.2369 10.5588 13.0418 10.5502 12.8984 10.5932ZM13.1939 11.0666C13.2828 11.1297 13.2799 11.2646 13.1824 11.3248C13.1135 11.3707 13.1049 11.3707 13.0332 11.3162C12.9356 11.2445 12.9213 11.1556 12.9959 11.081C13.0676 11.0092 13.1078 11.0064 13.1939 11.0666Z" fill="white"/>
<path d="M19.64 10.6132C19.5281 10.6648 19.31 10.8771 19.31 10.9345C19.31 10.9517 19.0489 10.9632 18.5928 10.9632H17.8727L17.8038 11.0349L17.7321 11.1038V11.8181C17.7321 12.4981 17.735 12.5383 17.7923 12.61C17.8698 12.7104 18.0391 12.7133 18.128 12.6186C18.1883 12.5555 18.1911 12.5268 18.1911 11.9874V11.4222H18.7477H19.3043L19.3617 11.5198C19.5883 11.9042 20.1707 11.9099 20.4232 11.5312C20.4892 11.428 20.5006 11.3849 20.5006 11.1927C20.5006 11.0005 20.4892 10.9574 20.4203 10.8542C20.3027 10.6734 20.1506 10.5873 19.9355 10.5701C19.7977 10.5615 19.726 10.573 19.64 10.6132ZM20.0014 11.0808C20.076 11.1554 20.0617 11.2443 19.9641 11.3161C19.8924 11.3706 19.8838 11.3706 19.815 11.3247C19.7174 11.2644 19.7145 11.1296 19.8035 11.0665C19.8896 11.0062 19.9297 11.0091 20.0014 11.0808Z" fill="white"/>
<path d="M10.9109 12.5439C10.6096 12.696 10.4777 13.0604 10.6154 13.3587C10.6642 13.4706 10.8765 13.6887 10.9338 13.6887C10.9511 13.6887 10.9625 13.9497 10.9625 14.4059V15.126L11.0343 15.1949L11.1031 15.2666H11.8175C12.4974 15.2666 12.5376 15.2637 12.6093 15.2064C12.7097 15.1289 12.7126 14.9596 12.6179 14.8707C12.5548 14.8104 12.5261 14.8076 11.9868 14.8076H11.4216V14.251V13.6944L11.5191 13.637C11.6367 13.5682 11.7486 13.4219 11.7945 13.2755C11.8691 13.0403 11.7515 12.7218 11.5335 12.5784C11.3728 12.4722 11.083 12.455 10.9109 12.5439ZM11.3039 13.0173C11.3584 13.089 11.3584 13.1464 11.2982 13.221C11.2523 13.2813 11.1146 13.2641 11.0658 13.1952C11.0056 13.1091 11.0084 13.069 11.0773 13.0001C11.1547 12.9226 11.2351 12.9284 11.3039 13.0173Z" fill="white"/>
<path d="M21.5971 12.5124C21.3877 12.5755 21.2184 12.7907 21.1869 13.0403C21.1553 13.2641 21.2815 13.5194 21.4795 13.637L21.5771 13.6944V14.251V14.8076H21.009C20.4495 14.8076 20.4381 14.8076 20.3778 14.8736C20.2918 14.9654 20.2946 15.1059 20.3864 15.1949L20.4553 15.2666H21.1754H21.8955L21.9644 15.1949L22.0361 15.126V14.4059C22.0361 13.9497 22.0476 13.6887 22.0648 13.6887C22.1222 13.6887 22.3345 13.4706 22.3832 13.3587C22.5209 13.0604 22.3775 12.673 22.082 12.5382C21.9586 12.4837 21.7377 12.4722 21.5971 12.5124ZM21.9213 13.0001C21.9902 13.069 21.9931 13.1091 21.9328 13.1952C21.884 13.2641 21.7463 13.2813 21.7004 13.221C21.6402 13.1464 21.6402 13.089 21.6947 13.0173C21.7635 12.9284 21.8439 12.9226 21.9213 13.0001Z" fill="white"/>
<path d="M15.584 13.1756C15.2167 13.2703 14.6372 13.5486 14.577 13.6604C14.531 13.7465 14.5425 13.8498 14.62 13.9933C14.6602 14.0678 14.6917 14.174 14.6917 14.2314C14.6888 14.4609 14.4593 14.6904 14.2298 14.6933C14.1724 14.6933 14.0663 14.6617 13.9917 14.6216C13.8195 14.5297 13.7048 14.5297 13.6158 14.6187C13.5154 14.7191 13.2687 15.247 13.1855 15.5454C13.1195 15.7778 13.1138 15.8179 13.1482 15.8896C13.1884 15.9728 13.2744 16.0274 13.4121 16.056C13.4581 16.0675 13.5441 16.122 13.6044 16.1823C13.722 16.297 13.7622 16.4347 13.7335 16.6011C13.7019 16.7704 13.4982 16.9598 13.3462 16.9598C13.3146 16.9598 13.2544 16.9913 13.2085 17.0286C13.1453 17.0831 13.131 17.1176 13.1339 17.2122C13.1453 17.4647 13.4581 18.225 13.6216 18.3857C13.7048 18.4717 13.8224 18.4689 13.9917 18.3799C14.1552 18.2938 14.2843 18.2881 14.4335 18.3656C14.6745 18.4889 14.7548 18.7586 14.6229 19.0053C14.531 19.1775 14.5282 19.2951 14.6142 19.3783C14.7806 19.5447 15.5467 19.8603 15.7905 19.8632C15.8823 19.8632 15.9225 19.8488 15.9741 19.7886C16.0114 19.7455 16.0401 19.6824 16.0401 19.6451C16.0401 19.5562 16.1492 19.3984 16.2668 19.3209C16.3988 19.232 16.5996 19.232 16.7316 19.3209C16.8492 19.3984 16.9582 19.5562 16.9582 19.6423C16.9582 19.7283 17.0557 19.846 17.1418 19.8689C17.3053 19.9091 18.2091 19.5562 18.3812 19.3841C18.4702 19.2951 18.4702 19.1775 18.3755 19.0053C18.2435 18.7586 18.3238 18.4889 18.5648 18.3656C18.714 18.2881 18.8431 18.2938 19.0066 18.3799C19.1759 18.4689 19.2935 18.4717 19.3767 18.3857C19.5431 18.2193 19.8587 17.4532 19.8616 17.2094C19.8616 17.1176 19.8473 17.0774 19.787 17.0258C19.744 16.9885 19.6809 16.9598 19.6436 16.9598C19.6063 16.9598 19.5345 16.9311 19.48 16.8938C19.1759 16.6901 19.1759 16.3114 19.48 16.1077C19.5345 16.0704 19.6063 16.0417 19.6407 16.0417C19.7268 16.0417 19.8444 15.9442 19.8673 15.8581C19.9075 15.6946 19.5546 14.7908 19.3825 14.6187C19.2935 14.5297 19.1788 14.5297 19.0066 14.6216C18.9321 14.6617 18.8259 14.6933 18.7685 14.6933C18.539 14.6904 18.3095 14.4609 18.3066 14.2314C18.3066 14.174 18.3382 14.0678 18.3783 13.9933C18.4702 13.8211 18.4702 13.7064 18.3812 13.6174C18.2091 13.4453 17.3053 13.0924 17.1418 13.1326C17.0557 13.1555 16.9582 13.2731 16.9582 13.3592C16.9582 13.4453 16.8492 13.6031 16.7316 13.6805C16.5996 13.7695 16.3988 13.7695 16.2668 13.6805C16.1492 13.6031 16.0401 13.4453 16.0401 13.3592C16.0401 13.2731 15.9426 13.1526 15.8565 13.1383C15.8192 13.1297 15.6959 13.1469 15.584 13.1756ZM15.7303 13.8154C15.8393 13.976 16.0459 14.131 16.2065 14.1769C16.2639 14.1912 16.3959 14.2056 16.4992 14.2056C16.6024 14.2056 16.7344 14.1912 16.7918 14.1769C16.9553 14.131 17.1619 13.9703 17.2738 13.8068C17.3885 13.6346 17.3914 13.6346 17.7127 13.7809C17.882 13.8584 17.9021 13.8785 17.8849 13.9301C17.8705 13.9646 17.8619 14.1051 17.8619 14.2486C17.8648 14.4724 17.8734 14.5269 17.9394 14.6502C18.0312 14.8224 18.189 14.9773 18.364 15.0691C18.4702 15.1236 18.539 15.1351 18.7513 15.138C18.8948 15.138 19.0353 15.1294 19.0698 15.115C19.1214 15.0978 19.1415 15.1179 19.2218 15.2929C19.3538 15.5827 19.3509 15.6142 19.1845 15.729C18.648 16.0962 18.6538 16.911 19.1931 17.2754C19.3653 17.3901 19.3624 17.3872 19.219 17.7086C19.1415 17.8864 19.1243 17.9065 19.0698 17.8864C19.0353 17.8721 18.8948 17.8635 18.7513 17.8635C18.5275 17.8664 18.473 17.875 18.3497 17.941C18.1775 18.0328 18.0226 18.1906 17.9308 18.3656C17.8763 18.4717 17.8648 18.5406 17.8619 18.7529C17.8619 18.8935 17.8705 19.0369 17.8849 19.0713C17.905 19.1258 17.8849 19.1431 17.707 19.2205C17.3828 19.3668 17.3885 19.3668 17.2709 19.1918C17.1619 19.0283 16.9582 18.8734 16.7918 18.8246C16.6541 18.7873 16.3414 18.7873 16.2065 18.8246C16.043 18.8705 15.8364 19.0312 15.7245 19.1947C15.6098 19.3668 15.6127 19.364 15.2913 19.2205C15.1135 19.1431 15.0934 19.1258 15.1135 19.0713C15.1278 19.0369 15.1364 18.8935 15.1364 18.7529C15.1335 18.5406 15.1221 18.4717 15.0675 18.3656C14.9757 18.1906 14.8208 18.0328 14.6487 17.941C14.5253 17.875 14.4708 17.8664 14.247 17.8635C14.1064 17.8635 13.963 17.8721 13.9286 17.8864C13.8741 17.9065 13.8568 17.8864 13.7794 17.7086C13.6359 17.3872 13.6331 17.3901 13.8052 17.2754C13.9687 17.1635 14.1294 16.9569 14.1753 16.7934C14.2126 16.6557 14.2126 16.3458 14.1753 16.2081C14.1294 16.0446 13.9687 15.838 13.8052 15.7261C13.6331 15.6114 13.6331 15.6085 13.7794 15.2872C13.8568 15.1179 13.8769 15.0978 13.9286 15.115C13.963 15.1294 14.1064 15.138 14.247 15.138C14.4593 15.1351 14.5282 15.1236 14.6343 15.0691C14.8093 14.9773 14.9671 14.8224 15.0589 14.6502C15.1249 14.5269 15.1335 14.4724 15.1364 14.2486C15.1364 14.1051 15.1278 13.9646 15.1135 13.9301C15.0962 13.8785 15.1163 13.8613 15.2856 13.7838C15.6213 13.6318 15.604 13.6289 15.7303 13.8154Z" fill="white"/>
<path d="M16.1552 15.2812C15.5785 15.4447 15.2027 15.9841 15.2457 16.5865C15.2716 16.9681 15.4408 17.2837 15.7392 17.5103C15.9773 17.6911 16.1523 17.7456 16.4995 17.7456C16.7434 17.7456 16.8323 17.7341 16.9585 17.6825C17.2741 17.5563 17.5553 17.2751 17.6815 16.9595C17.7704 16.7329 17.7704 16.2681 17.6815 16.0414C17.5553 15.723 17.2712 15.4418 16.9585 15.3213C16.7491 15.241 16.3704 15.2238 16.1552 15.2812ZM16.8696 15.8033C17.0618 15.9009 17.1995 16.073 17.2626 16.291C17.3831 16.7042 17.1364 17.1403 16.7089 17.2636C16.0548 17.453 15.4839 16.7501 15.7966 16.1418C16.0032 15.7402 16.4622 15.5939 16.8696 15.8033Z" fill="white"/>
<path d="M9.85476 15.9381C9.77443 15.9754 9.67402 16.05 9.63672 16.1016C9.38712 16.4373 9.4904 16.8935 9.85476 17.0627C10.1044 17.1804 10.3454 17.1431 10.5491 16.9537C10.6179 16.8906 10.681 16.816 10.6896 16.7845C10.7068 16.7328 10.747 16.7299 11.6335 16.7299H12.5602L12.6205 16.664C12.7065 16.5721 12.7037 16.4144 12.6176 16.334C12.5516 16.2709 12.5373 16.2709 11.6307 16.2709C10.747 16.2709 10.7068 16.268 10.6896 16.2164C10.681 16.1848 10.6179 16.1102 10.5491 16.0471C10.3454 15.8578 10.1044 15.8205 9.85476 15.9381ZM10.2105 16.3742C10.2995 16.4373 10.2966 16.5721 10.199 16.6324C10.1302 16.6783 10.1216 16.6783 10.0499 16.6238C9.9437 16.5463 9.93796 16.4631 10.0326 16.3885C10.1244 16.3168 10.1273 16.3168 10.2105 16.3742Z" fill="white"/>
<path d="M22.6557 15.9123C22.5381 15.9525 22.3344 16.1332 22.3057 16.2193C22.2914 16.2681 22.2311 16.2709 21.3647 16.2709H20.438L20.3778 16.3369C20.286 16.4345 20.2917 16.5923 20.3893 16.6697C20.4638 16.7271 20.4983 16.73 21.3791 16.73C22.2512 16.73 22.2914 16.7328 22.3086 16.7845C22.3373 16.8734 22.5668 17.0685 22.6844 17.1001C23.023 17.1947 23.3586 17.0226 23.4677 16.7041C23.5681 16.4 23.4304 16.0701 23.1435 15.9381C22.9799 15.8607 22.8221 15.8521 22.6557 15.9123ZM22.9656 16.3886C23.0603 16.4632 23.0545 16.5464 22.9484 16.6238C22.8767 16.6783 22.868 16.6783 22.7992 16.6324C22.7016 16.5722 22.6988 16.4373 22.7877 16.3742C22.8709 16.3168 22.8738 16.3168 22.9656 16.3886Z" fill="white"/>
<path d="M11.0333 17.8061L10.9616 17.8749V18.5951C10.9616 19.0627 10.9501 19.3123 10.9329 19.3123C10.8669 19.3123 10.646 19.5533 10.6001 19.6738C10.4968 19.9435 10.603 20.2591 10.8526 20.4226C10.9558 20.4943 10.9989 20.5029 11.194 20.5029C11.3948 20.5029 11.4264 20.4943 11.5411 20.4169C11.9141 20.1529 11.8997 19.5906 11.5182 19.3639L11.4206 19.3066V18.75V18.1934H11.9887C12.5481 18.1934 12.5596 18.1934 12.6198 18.1274C12.7117 18.0299 12.7059 17.8721 12.6084 17.7946C12.5366 17.7372 12.4965 17.7344 11.8165 17.7344H11.1022L11.0333 17.8061ZM11.2972 19.7771C11.3604 19.8603 11.3604 19.9148 11.2944 19.9894C11.2427 20.0525 11.214 20.064 11.1509 20.0468C11.0419 20.0209 10.996 19.9091 11.0591 19.8144C11.1108 19.7369 11.2485 19.714 11.2972 19.7771Z" fill="white"/>
<path d="M20.3899 17.7942C20.2895 17.8717 20.2866 18.041 20.3813 18.1299C20.4444 18.1901 20.4731 18.193 21.0125 18.193H21.5776V18.7496V19.3062L21.4801 19.3636C21.1014 19.5873 21.0842 20.1525 21.4514 20.4107C21.6063 20.5198 21.8617 20.5484 22.051 20.4767C22.3666 20.3562 22.5273 19.9546 22.3838 19.6419C22.3351 19.53 22.1227 19.3119 22.0654 19.3119C22.0482 19.3119 22.0367 19.0508 22.0367 18.5947V17.8746L21.965 17.8057L21.8961 17.734H21.1817C20.5018 17.734 20.4616 17.7369 20.3899 17.7942ZM21.9391 19.814C22.0023 19.9087 21.9563 20.0206 21.8473 20.0464C21.7842 20.0636 21.7555 20.0521 21.7039 19.989C21.6379 19.9144 21.6379 19.8599 21.701 19.7767C21.7498 19.7136 21.8875 19.7365 21.9391 19.814Z" fill="white"/>
<path d="M14.8693 20.3821C14.8091 20.4452 14.8062 20.4739 14.8062 21.0132V21.5784H14.2496H13.6931L13.6357 21.4809C13.4119 21.1022 12.8467 21.085 12.5885 21.4522C12.4795 21.6071 12.4508 21.8624 12.5225 22.0518C12.643 22.3674 13.0447 22.5281 13.3574 22.3846C13.4693 22.3358 13.6873 22.1235 13.6873 22.0661C13.6873 22.0489 13.9484 22.0375 14.4046 22.0375H15.1247L15.1935 21.9657L15.2653 21.8969V21.1825C15.2653 20.5026 15.2624 20.4624 15.205 20.3907C15.1275 20.2903 14.9583 20.2874 14.8693 20.3821ZM13.1939 21.6817C13.343 21.785 13.2082 22.0317 13.0418 21.9571C13.0016 21.9399 12.9615 21.8911 12.9529 21.8481C12.9356 21.785 12.9471 21.7563 13.0102 21.7018C13.102 21.6243 13.1107 21.6215 13.1939 21.6817Z" fill="white"/>
<path d="M16.3331 20.3821C16.27 20.4481 16.27 20.4625 16.27 21.3691C16.27 22.2527 16.2671 22.2929 16.2155 22.3101C16.1839 22.3187 16.1093 22.3818 16.0462 22.4507C15.8569 22.6544 15.8196 22.8954 15.9372 23.145C16.1581 23.6183 16.8409 23.6183 17.0618 23.145C17.1795 22.8954 17.1422 22.6544 16.9528 22.4507C16.8897 22.3818 16.8151 22.3187 16.7835 22.3101C16.7319 22.2929 16.729 22.2527 16.729 21.3662V20.4395L16.663 20.3793C16.5712 20.2932 16.4134 20.2961 16.3331 20.3821ZM16.6344 22.8036C16.6774 22.8667 16.6774 22.8781 16.6229 22.9499C16.5454 23.056 16.4622 23.0618 16.3876 22.9671C16.3102 22.8695 16.313 22.8523 16.3962 22.7691C16.4766 22.6888 16.5684 22.7003 16.6344 22.8036Z" fill="white"/>
<path d="M17.7923 20.3909C17.735 20.4627 17.7321 20.5028 17.7321 21.1828V21.8972L17.8038 21.966L17.8727 22.0377H18.5928C19.0604 22.0377 19.31 22.0492 19.31 22.0664C19.31 22.1324 19.551 22.3533 19.6715 22.3992C19.9412 22.5025 20.2568 22.3964 20.4203 22.1468C20.492 22.0435 20.5006 22.0004 20.5006 21.8053C20.5006 21.6045 20.492 21.573 20.4146 21.4582C20.1506 21.0852 19.5883 21.0996 19.3617 21.4812L19.3043 21.5787H18.7477H18.1911V21.0106C18.1911 20.4512 18.1911 20.4397 18.1251 20.3795C18.0276 20.2877 17.8698 20.2934 17.7923 20.3909ZM19.9871 21.7021C20.0502 21.7566 20.0617 21.7853 20.0445 21.8484C20.0359 21.8914 19.9957 21.9402 19.9555 21.9574C19.7891 22.032 19.6543 21.7853 19.8035 21.682C19.8867 21.6217 19.8953 21.6246 19.9871 21.7021Z" fill="white"/>
</svg>
