<svg width="16" height="19" viewBox="0 0 16 19" fill="none" xmlns="http://www.w3.org/2000/svg">
<path d="M6.4 18.4221C5.51684 18.4178 4.80073 17.7052 4.792 16.8221H7.992C7.99369 17.036 7.9529 17.2481 7.872 17.4461C7.66212 17.9277 7.23345 18.279 6.72 18.3901H6.716H6.704H6.6896H6.6824C6.58945 18.4095 6.49492 18.4202 6.4 18.4221ZM12.8 16.0221H0V14.4221L1.6 13.6221V9.22212C1.55785 8.09341 1.81275 6.97342 2.3392 5.97412C2.86323 5.04733 3.75896 4.38922 4.8 4.16612V2.42212H8V4.16612C10.0632 4.65732 11.2 6.45252 11.2 9.22212V13.6221L12.8 14.4221V16.0221Z" fill="#B0C3CC"/>
<circle cx="11" cy="4.19995" r="3.6" fill="#EC5252" stroke="white" stroke-width="1.2"/>
</svg>
