<svg width="133" height="61" viewBox="0 0 133 61" fill="none" xmlns="http://www.w3.org/2000/svg">
<path d="M122.586 46.1808L122.553 41.3649H123.407C124.162 44.2211 125.772 45.6826 128.105 45.6826C130.043 45.6826 131.226 44.5865 131.226 43.3243C131.226 41.7967 129.748 41.9295 127.086 41.531C123.998 41.0661 122.52 40.1029 122.52 37.479C122.52 34.5894 124.36 32.8292 127.152 32.8292C128.302 32.8292 129.386 33.1282 130.273 33.5932L130.963 32.9954H131.62L131.719 36.682H130.865C130.207 34.6559 128.959 33.6265 127.185 33.6265C125.345 33.6265 124.195 34.4899 124.195 35.4198C124.195 36.6156 125.575 36.6487 128.335 37.0141C131.653 37.4459 133 38.575 133 41.5641C133 44.6198 131.16 46.546 128.006 46.546C126.462 46.546 125.214 46.1475 124.294 45.45L123.374 46.1808H122.586Z" fill="#E7873B"/>
<path d="M103.7 45.1843H105.671V34.1578H103.503V33.1282C105.639 33.1282 107.84 33.0618 110.172 32.8957V36.1837C111.421 33.8922 112.998 32.8625 115.396 32.8625C118.813 32.8625 119.174 34.4568 119.174 37.5788V45.1843H121.08V46.1808H113.063V45.1843H114.739V36.0178C114.739 34.822 114.345 34.2574 113.392 34.2574C111.881 34.2574 110.205 36.4163 110.205 38.9736V45.1843H111.848V46.1808H103.7V45.1843Z" fill="#E7873B"/>
<path d="M94.1444 33.6265C91.6476 33.6265 91.549 35.287 91.549 39.6711V40.9997C91.549 44.354 91.7132 45.749 94.1444 45.749C96.5757 45.749 96.7071 44.2544 96.7071 40.1693V38.2429C96.7071 35.0213 96.5099 33.6265 94.1444 33.6265ZM86.4567 39.7042C86.4567 35.7519 89.5122 32.8292 94.1117 32.8292C98.7112 32.8292 101.799 35.7188 101.799 39.6711C101.799 43.6233 98.7112 46.546 94.1117 46.546C89.5122 46.546 86.4567 43.6567 86.4567 39.7042Z" fill="#E7873B"/>
<path d="M76.5546 46.1811V45.1846H78.4932V34.2246H76.3577V33.2281C78.723 33.1616 80.9572 33.0288 83.0269 32.8295V45.1846H85.0639V46.1811H76.5546ZM78.3945 27.6153C78.3945 26.32 79.4459 25.2904 80.6942 25.2904C81.9428 25.2904 82.9611 26.32 82.9611 27.6153C82.9611 28.8773 81.9428 29.9402 80.6613 29.9402C79.3801 29.9402 78.3945 28.8773 78.3945 27.6153Z" fill="#E7873B"/>
<path d="M67.3429 45.1846H69.2483V25.5891H67.1128V24.5929C69.4784 24.5264 71.7123 24.3936 73.7822 24.1943V45.1846H75.8519V46.1811H67.3429V45.1846Z" fill="#E7873B"/>
<path d="M58.2956 45.1846H60.201V25.5891H58.0656V24.5929C60.4311 24.5264 62.6651 24.3936 64.735 24.1943V45.1846H66.8047V46.1811H58.2956V45.1846Z" fill="#215675"/>
<path d="M49.4121 46.1811V45.1846H51.3505V34.2246H49.215V33.2281C51.5805 33.1616 53.8145 33.0288 55.8842 32.8295V45.1846H57.9212V46.1811H49.4121ZM51.252 27.6153C51.252 26.32 52.3032 25.2904 53.5517 25.2904C54.8001 25.2904 55.8186 26.32 55.8186 27.6153C55.8186 28.8773 54.8001 29.9402 53.5188 29.9402C52.2376 29.9402 51.252 28.8773 51.252 27.6153Z" fill="#215675"/>
<path d="M31.6419 45.1846H33.2519V25.5891H31.6419V24.5929C33.4161 24.5264 35.42 24.3936 37.7198 24.1943V45.1846H39.7897V46.1811H31.6419V45.1846ZM37.8841 39.0402L43.6007 34.1912H40.5123V33.1949H47.3789V34.1912H44.9476L41.5637 37.0143L47.8717 45.1846H49.2185V46.1811H40.9067V45.1846H42.5493L37.8841 39.0402Z" fill="#215675"/>
<path d="M5.58894 21.7561C1.65657 17.2215 2.69581 10.1046 7.76465 6.57996C5.94094 8.67102 4.47594 10.9586 4.077 13.7648C3.67807 16.5708 4.40219 19.2143 5.58894 21.7561Z" fill="#215675"/>
<path d="M1.66333 15.5984C-0.32129 10.3148 2.55507 4.95684 8.39496 2.90308C3.11157 5.40418 1.11354 9.7116 1.66333 15.5984Z" fill="#215675"/>
<path d="M18.2045 17.1504C18.2045 17.1504 16.887 17.608 16.7696 18.6823C16.6523 19.7567 17.1719 20.5395 16.9138 20.8004C16.9138 20.8004 15.6265 18.9737 16.1394 17.9334C16.6523 16.8929 18.2045 17.1504 18.2045 17.1504Z" fill="#215675"/>
<path d="M19.7503 5.94653C19.7503 5.94653 21.3326 6.01421 21.574 6.24134C21.7927 6.55101 21.9601 6.89422 22.0701 7.25816C22.0701 7.25816 20.2665 6.71591 20.0084 6.46511C19.8615 6.3308 19.7693 6.14579 19.7503 5.94653Z" fill="#E7873B"/>
<path d="M14.8522 3.66551C14.8522 3.66551 12.7704 4.68213 14.1817 7.1495L14.517 7.63413C14.517 7.63413 12.6094 5.8649 12.948 4.73975C13.2866 3.6146 14.8522 3.66551 14.8522 3.66551Z" fill="#215675"/>
<path d="M5.63297 2.7708C5.63297 2.7708 11.4963 -0.557192 17.7016 2.2591C17.7016 2.2591 14.7347 0.595093 11.4829 0.595093C8.23108 0.595093 5.63297 2.7708 5.63297 2.7708Z" fill="#E7873B"/>
<path d="M25.7074 16.249C25.8187 16.3716 25.9002 16.5191 25.9455 16.6794L25.8751 16.7777L25.9253 16.7031L25.4996 16.4083C25.4996 16.4083 25.5935 16.3473 25.7074 16.249Z" fill="#E7873B"/>
<path d="M27.7392 14.2836H28.2588V14.3175C28.2588 14.3548 28.2588 14.3921 28.2588 14.4258C28.1348 14.4258 27.9739 14.3955 27.7828 14.3818L27.7392 14.2836Z" fill="#E7873B"/>
<path d="M29.9514 9.2001L29.5324 9.12551L29.5156 8.4104L29.9514 9.2001Z" fill="#E7873B"/>
<path d="M30.3938 9.74553C30.3938 9.74553 29.5457 14.5749 28.255 14.4259C28.255 14.392 28.255 14.3547 28.255 14.3174V14.2834H27.7387L27.7756 14.3817C26.0256 14.2428 21.9893 14.1208 23.7896 15.1138C24.3427 15.4188 25.2546 15.717 25.7072 16.249C25.5932 16.3472 25.4993 16.4118 25.4993 16.4118L25.9251 16.7066C25.9251 16.7066 25.9251 16.7066 25.9452 16.6829C26.0045 16.9144 25.9894 17.159 25.9016 17.381C25.4222 18.7164 23.8063 19.9634 22.0363 17.7775C22.0363 17.7775 21.2954 17.0014 20.9099 17.076C20.5243 17.1506 22.2072 16.571 22.6565 17.381C23.1057 18.1911 24.1315 18.1944 24.1315 18.1944C24.1315 18.1944 25.0367 18.0656 25.1004 17.3471C25.1641 16.6286 24.1315 15.8459 23.3571 15.5881C22.5827 15.3306 22.3279 14.0226 23.3571 13.7615C24.8743 13.3783 26.4497 13.2873 28.0002 13.4937C28.0002 13.4937 29.1635 11.6128 29.2808 10.3115C28.7176 9.97265 27.4269 9.70153 27.2258 9.19322C26.9677 8.53908 27.2258 8.02386 27.4471 8.41693C27.6013 8.69497 28.7679 8.96609 29.4585 9.09474C29.5792 8.69497 29.6228 8.47119 28.9992 7.79338C27.9935 6.71244 22.8476 5.29228 22.0765 4.69932C21.3054 4.10615 19.1968 0.696777 17.0244 0.584954C15.7549 0.507911 14.4825 0.672285 13.2731 1.06959C13.2731 1.06959 16.0288 -0.855407 18.533 0.459553C21.0373 1.77449 21.4429 3.17083 22.6565 3.90962C23.87 4.6484 30.2832 6.68855 30.6855 7.87824C30.8152 8.18561 30.8567 8.52399 30.8051 8.85421C30.7536 9.18442 30.6111 9.49347 30.3938 9.74553Z" fill="#E7873B"/>
<path d="M29.9514 9.2001L29.5324 9.12551L29.5156 8.4104L29.9514 9.2001Z" fill="#E7873B"/>
<path d="M5.3782 17.2218C5.3782 17.2218 5.83413 21.8039 18.7207 26.1283C31.6074 30.4527 27.4872 42.7041 25.6803 44.2665C25.6803 44.2665 29.0327 37.4883 21.0406 33.5807C13.0484 29.6733 7.49692 28.4668 5.3782 17.2218Z" fill="#215675"/>
<path d="M28.2588 14.2836V14.3175C28.2588 14.3548 28.2588 14.3921 28.2588 14.4258C28.196 14.7636 28.0267 15.0716 27.7761 15.3037C27.984 15.0833 27.8532 14.592 27.7761 14.3818L27.7392 14.2836H28.2588Z" fill="#E7873B"/>
<path d="M25.9455 16.68L25.8751 16.7782L25.9253 16.7037L25.4996 16.4089C25.4996 16.4089 25.5935 16.3443 25.7074 16.2461C25.8952 16.0835 26.1365 15.8224 26.0896 15.5682C26.1829 15.9439 26.1311 16.3414 25.9455 16.68Z" fill="#E7873B"/>
<path d="M10.0718 6.98669C10.0718 6.98669 7.00435 14.2562 12.3413 18.9602C17.6784 23.6643 22.0633 25.7384 22.3181 26.2704C22.3181 26.2704 9.17 22.8813 6.592 16.6286C4.01401 10.3758 10.0718 6.98669 10.0718 6.98669Z" fill="#E7873B"/>
<path d="M8.68702 4.48206C8.68702 4.48206 5.52235 5.76309 3.94002 8.6405C4.32728 7.60314 4.96407 6.67997 5.79289 5.95397C6.62167 5.22775 7.61633 4.72196 8.68702 4.48206Z" fill="#E7873B"/>
<path d="M0.158532 11.9722C0.158532 11.9722 -0.0392605 15.4088 1.86491 18.0725C1.10217 17.2788 0.546845 16.3054 0.248942 15.2403C-0.0489611 14.1755 -0.0799917 13.0523 0.158532 11.9722Z" fill="#E7873B"/>
<path d="M23.2563 35.9358C23.2563 35.9358 27.2054 40.3075 24.4095 44.8963C21.6138 49.4852 11.2683 50.529 4.19806 44.0153C4.19806 44.0153 21.5434 50.0071 23.2563 35.9358Z" fill="#E7873B"/>
<path d="M125.71 60.2153H126.535V51.9756H125.628V51.5588C126.604 51.5588 127.538 51.5171 128.432 51.4337V56.4636C128.954 55.505 129.614 55.0742 130.617 55.0742C131.909 55.0742 132.198 55.6299 132.198 56.811V60.2153H132.995V60.6321H129.627V60.2153H130.342V56.3942C130.342 55.8939 130.177 55.6716 129.779 55.6716C129.133 55.6716 128.432 56.561 128.432 57.6309V60.2153H129.133V60.6321H125.71V60.2153Z" fill="#215675"/>
<path d="M124.581 58.7975L124.897 58.9087C124.471 60.1453 123.647 60.7705 122.451 60.7705C120.691 60.7705 119.413 59.4922 119.413 57.8944C119.413 56.338 120.774 55.0459 122.574 55.0459C123.853 55.0459 124.664 55.7128 124.664 56.5744C124.664 57.0884 124.292 57.4636 123.784 57.4636C123.193 57.4636 122.849 57.0883 122.849 56.5327C122.849 56.0047 123.275 55.8379 123.275 55.685C123.275 55.4626 123.042 55.3654 122.574 55.3654C121.557 55.3654 121.516 55.8934 121.516 57.0607V58.7281C121.516 59.8813 121.626 60.3817 122.602 60.3817C123.55 60.3817 124.224 59.8396 124.581 58.7975Z" fill="#215675"/>
<path d="M118.063 58.7975L118.38 58.9087C117.926 60.187 117.06 60.7846 115.672 60.7846C113.748 60.7846 112.538 59.659 112.538 57.9778C112.538 56.3242 113.83 55.0459 115.644 55.0459C117.294 55.0459 118.311 56.0323 118.311 57.6166V57.6859H114.71V59.0476C114.71 60.0202 114.93 60.4372 115.809 60.4372C116.909 60.4372 117.665 59.8813 118.063 58.7975ZM114.71 57.2692H116.524V56.2132C116.524 55.6294 116.249 55.3793 115.617 55.3793C115.012 55.3793 114.71 55.6435 114.71 56.2132V57.2692Z" fill="#215675"/>
<path d="M108.551 59.3953V55.6159H107.767V55.199H108.551V53.5177C108.812 53.5454 109.073 53.5594 109.348 53.5594C109.692 53.5594 110.035 53.5316 110.393 53.4899V55.199H111.492V55.6159H110.393V59.3953C110.393 59.8538 110.489 60.0067 110.832 60.0067C111.176 60.0067 111.41 59.701 111.451 59.2147H111.822C111.767 60.1595 111.011 60.7709 109.912 60.7709C108.716 60.7709 108.551 60.3679 108.551 59.3953Z" fill="#215675"/>
<path d="M103.728 55.3793C102.683 55.3793 102.642 56.074 102.642 57.9082V58.4641C102.642 59.8675 102.711 60.451 103.728 60.451C104.745 60.451 104.8 59.8258 104.8 58.1167V57.3109C104.8 55.963 104.718 55.3793 103.728 55.3793ZM100.512 57.9221C100.512 56.2687 101.79 55.0459 103.714 55.0459C105.639 55.0459 106.931 56.2547 106.931 57.9082C106.931 59.5618 105.639 60.7846 103.714 60.7846C101.79 60.7846 100.512 59.5756 100.512 57.9221Z" fill="#215675"/>
<path d="M96.4966 60.2149V55.6296H95.6306V55.2127H96.4966V54.921C96.4966 52.8645 97.7611 51.4194 99.3556 51.4194C100.345 51.4194 100.964 51.9196 100.964 52.6144C100.964 53.1841 100.647 53.5036 100.098 53.5036C99.6166 53.5036 99.273 53.1841 99.273 52.7256C99.273 52.3087 99.6305 52.1559 99.6305 52.003C99.6305 51.9057 99.4792 51.8085 99.2319 51.8085C98.6821 51.8085 98.3521 52.2531 98.3521 53.1145C98.3521 53.7399 98.3934 54.2679 98.3934 54.6847V55.2127H99.5756V55.6296H98.3934V60.2149H99.3556V60.6318H95.6993V60.2149H96.4966Z" fill="#215675"/>
<path d="M88.1559 60.2155H88.9805V55.6023H88.0733V55.1716C88.9667 55.1716 89.8876 55.1437 90.8636 55.0743V56.4499C91.3859 55.4911 92.0455 55.0603 93.0489 55.0603C94.4785 55.0603 94.6296 55.7272 94.6296 57.0334V60.2155H95.4268V60.6322H92.0731V60.2155H92.774V56.3803C92.774 55.8802 92.6091 55.644 92.2106 55.644C91.5782 55.644 90.8772 56.5471 90.8772 57.6171V60.2155H91.5644V60.6322H88.1559V60.2155Z" fill="#215675"/>
<path d="M83.0459 60.632V60.1872H84.1455V52.017H83.0459V51.6002H87.5543V52.017H86.4547V60.1872H87.5543V60.632H83.0459Z" fill="#215675"/>
</svg>
