<svg width="46" height="46" viewBox="0 0 46 46" fill="none" xmlns="http://www.w3.org/2000/svg">
<rect width="46" height="46" rx="23" fill="#215675" fill-opacity="0.2"/>
<path d="M13.828 14.0088C13.532 14.1004 13.2361 14.3541 13.0846 14.6465L13 14.8051V19.0858V23.3664L13.0916 23.5426C13.2819 23.8984 13.606 24.131 14.0006 24.1979C14.1098 24.2155 15.3324 24.2296 16.7205 24.2296H19.2431L19.1832 24.4551C18.8732 25.5649 18.9225 26.8509 19.3136 27.9783C20.0076 29.9865 21.6812 31.4557 23.7915 31.9137C24.0487 31.9666 24.3095 31.9912 24.8379 32.0053C25.4545 32.0229 25.5989 32.0124 25.9935 31.9489C27.2866 31.727 28.3259 31.1915 29.2631 30.2578C30.1403 29.3805 30.6406 28.4539 30.926 27.1891C30.9894 26.9002 31 26.7417 31 26.0088C31 25.2654 30.993 25.121 30.9225 24.8039C30.3412 22.1404 28.2308 20.2555 25.539 19.9983C24.8873 19.9384 24.0734 20.0053 23.4604 20.1779L23.2349 20.2378V17.6941C23.2349 16.2144 23.2208 15.0764 23.1996 14.9707C23.1292 14.5866 22.8931 14.2696 22.5479 14.0863L22.3717 13.9947L18.1439 13.9877C15.8186 13.9842 13.8773 13.9947 13.828 14.0088ZM15.9771 15.862C15.9771 16.8485 15.9877 17.141 16.0264 17.229C16.0828 17.3664 16.2413 17.5179 16.3752 17.5673C16.4422 17.5919 17.0376 17.606 18.0981 17.606C19.6765 17.606 19.7293 17.6025 19.8773 17.532C19.9794 17.4827 20.0605 17.4087 20.1169 17.3101L20.2049 17.1586V15.8867V14.6113H21.1844C22.111 14.6113 22.1674 14.6148 22.2801 14.6853C22.4422 14.7839 22.5197 14.8826 22.5619 15.0588C22.5866 15.1574 22.6007 16.0875 22.6007 17.8456V20.4845L22.4457 20.5444C22.3576 20.5796 22.1568 20.6818 21.9982 20.7804C21.8397 20.8755 21.6988 20.9531 21.6882 20.9531C21.6776 20.9495 21.6354 20.9002 21.5966 20.8368C21.5578 20.7734 21.4557 20.6888 21.3676 20.643C21.2126 20.5655 21.195 20.562 20.1521 20.5725C19.1339 20.5831 19.0916 20.5866 18.9718 20.6606C18.9014 20.7029 18.8097 20.8016 18.7675 20.8791C18.69 21.0165 18.6864 21.0517 18.697 21.6824C18.7076 22.3165 18.7111 22.3482 18.7921 22.4645C18.9295 22.6548 19.1022 22.7147 19.5602 22.7147H19.9513L19.7786 23.0036C19.6835 23.1656 19.5813 23.3629 19.5496 23.444L19.4897 23.5954H16.8509C15.0928 23.5954 14.1627 23.5814 14.064 23.5567C13.8878 23.5144 13.7892 23.4369 13.6905 23.2748C13.6166 23.1551 13.6166 23.141 13.6166 19.0822V15.0094L13.6976 14.8896C13.7399 14.8262 13.8315 14.7346 13.8949 14.6923C14.0112 14.6113 14.0323 14.6113 14.9941 14.6113H15.9771V15.862ZM19.5708 15.7916V16.9718H18.091H16.6113V15.7916V14.6113H18.091H19.5708V15.7916ZM25.5426 20.636C26.2366 20.717 26.7933 20.8791 27.4099 21.1856C28.8685 21.9078 29.9219 23.2678 30.2883 24.9026C30.3588 25.2196 30.3693 25.3641 30.3693 25.9912C30.3693 26.5479 30.3553 26.7839 30.3059 27.0129C29.8972 28.9683 28.5161 30.5256 26.6524 31.1316C26.0393 31.3289 25.7892 31.3641 24.9965 31.3641C24.3693 31.3641 24.2249 31.3535 23.9078 31.2831C22.273 30.9166 20.9131 29.8632 20.1908 28.4046C19.4016 26.8156 19.4298 25.0223 20.2613 23.4545C21.2689 21.5626 23.4498 20.3964 25.5426 20.636ZM21.0857 21.3018C21.0857 21.3864 21.0188 21.471 20.7475 21.7422L20.4093 22.0805H19.8667H19.3241V21.6401V21.1997H20.2049H21.0857V21.3018Z" fill="#0171B3"/>
<path d="M14.5506 20.9953C14.4731 21.0869 14.459 21.1327 14.4766 21.2314C14.4872 21.2983 14.5295 21.3864 14.5682 21.4252C14.6387 21.4956 14.6774 21.4991 15.5406 21.4991H16.4426L16.5271 21.4005C16.6187 21.2913 16.6363 21.168 16.5694 21.0482C16.4848 20.8896 16.4602 20.8861 15.5301 20.8826H14.6457L14.5506 20.9953Z" fill="#0171B3"/>
<path d="M14.5643 22.1826C14.4939 22.2531 14.4622 22.32 14.4622 22.3975C14.4622 22.475 14.4939 22.542 14.5643 22.6124L14.6665 22.7146H15.2373H15.808L15.9102 22.6124C15.9807 22.542 16.0124 22.475 16.0124 22.3975C16.0124 22.32 15.9807 22.2531 15.9102 22.1826L15.808 22.0804H15.2373H14.6665L14.5643 22.1826Z" fill="#0171B3"/>
<path d="M24.6265 21.1855C23.2807 21.3194 22.118 21.9219 21.3006 22.9084C20.5467 23.8209 20.1908 24.825 20.1944 26.0264C20.1944 26.6394 20.2648 27.0587 20.4551 27.6013C21.0188 29.1973 22.34 30.3635 24.01 30.7299C24.4257 30.8215 25.3312 30.8391 25.7751 30.7651C26.8109 30.596 27.6776 30.1485 28.4175 29.4122C29.1538 28.6723 29.6013 27.8056 29.7704 26.7698C29.8444 26.3259 29.8268 25.4204 29.7352 25.0047C29.5379 24.1027 29.1221 23.3312 28.4774 22.6618C27.5895 21.7387 26.4692 21.2384 25.1691 21.1891C24.9472 21.1785 24.7041 21.1785 24.6265 21.1855ZM25.4087 21.8373C26.1063 21.9148 26.8109 22.1685 27.3605 22.542C27.6671 22.7463 28.1392 23.2043 28.3752 23.5249C29.4674 24.9871 29.4604 27.034 28.3611 28.4962C27.1245 30.145 24.8943 30.6594 23.0799 29.7152C22.5232 29.4263 21.8961 28.8696 21.5473 28.3552C21.0188 27.5801 20.7475 26.5373 20.8356 25.6424C21.0188 23.835 22.2484 22.3905 23.9924 21.943C24.4997 21.8091 24.9084 21.781 25.4087 21.8373Z" fill="#0171B3"/>
<path d="M24.901 22.4046C24.7319 22.4504 24.6685 22.5948 24.6861 22.9013C24.6966 23.1162 24.7107 23.155 24.7953 23.229C24.9292 23.3417 25.1124 23.3417 25.2251 23.2255C25.3062 23.148 25.3132 23.1127 25.3132 22.845C25.3132 22.5842 25.3026 22.542 25.2357 22.4785C25.1335 22.3869 25.0419 22.3658 24.901 22.4046Z" fill="#0171B3"/>
<path d="M22.4558 23.4511C22.3395 23.5709 22.3219 23.7118 22.4135 23.8421C22.6566 24.1909 22.9033 24.2825 23.097 24.0923C23.2767 23.9126 23.2062 23.666 22.9138 23.4546C22.7236 23.3172 22.5897 23.3172 22.4558 23.4511Z" fill="#0171B3"/>
<path d="M27.1985 23.3806C27.1598 23.3982 27.0611 23.4828 26.9766 23.5744C26.8533 23.7083 26.8286 23.7576 26.8286 23.8774C26.8286 24.0676 26.9484 24.1945 27.1281 24.1945C27.2373 24.1945 27.2902 24.1627 27.4557 24.0042C27.6354 23.8316 27.6566 23.7999 27.6566 23.666C27.6566 23.4229 27.4346 23.2855 27.1985 23.3806Z" fill="#0171B3"/>
<path d="M24.8561 23.9231C24.6905 24.0076 24.6799 24.0746 24.6799 25.0822C24.6799 25.6001 24.694 26.0581 24.7116 26.1039C24.7293 26.1497 24.9054 26.3506 25.0992 26.5479C25.4339 26.8826 25.4691 26.9072 25.5995 26.9072C25.7933 26.9072 25.913 26.7874 25.913 26.5901C25.913 26.4563 25.8884 26.421 25.6136 26.1356L25.3141 25.8256V24.9589C25.3141 24.4833 25.3035 24.0675 25.293 24.0358C25.2683 23.9724 25.0992 23.8773 25.0076 23.8773C24.9724 23.8773 24.9054 23.8984 24.8561 23.9231Z" fill="#0171B3"/>
<path d="M21.5406 25.727C21.3644 25.8221 21.3398 26.0688 21.4842 26.2273C21.5476 26.2978 21.5899 26.3083 21.8506 26.3083C22.1184 26.3083 22.1536 26.3013 22.2311 26.2203C22.3474 26.1075 22.3474 25.9243 22.2347 25.7904C22.1607 25.7024 22.1254 25.6918 21.8929 25.6847C21.7097 25.6777 21.604 25.6883 21.5406 25.727Z" fill="#0171B3"/>
<path d="M27.9208 25.6988C27.7023 25.7869 27.6354 26.0617 27.7974 26.2203C27.875 26.2978 27.9102 26.3083 28.1674 26.3083C28.4246 26.3083 28.4598 26.2978 28.5373 26.2203C28.6606 26.1005 28.6571 25.8926 28.5373 25.7799C28.4633 25.7094 28.4034 25.6918 28.2097 25.6847C28.0793 25.6812 27.9489 25.6847 27.9208 25.6988Z" fill="#0171B3"/>
<path d="M22.5407 28.01C22.3751 28.1791 22.354 28.2179 22.354 28.3447C22.354 28.461 22.3751 28.5032 22.4667 28.5807C22.6359 28.7252 22.7803 28.6864 23.0164 28.4433C23.2066 28.2425 23.2418 28.1404 23.1573 27.9889C23.0939 27.8691 23.0164 27.8268 22.8684 27.8233C22.7486 27.8233 22.7063 27.8479 22.5407 28.01Z" fill="#0171B3"/>
<path d="M26.9167 27.9113C26.8533 27.9712 26.8286 28.0346 26.8286 28.1368C26.8286 28.2531 26.8533 28.2989 27.0012 28.4504C27.1985 28.6512 27.3078 28.6899 27.4769 28.6195C27.5614 28.5842 27.6072 28.5349 27.6389 28.4433C27.6918 28.2812 27.6178 28.1192 27.417 27.9465C27.2373 27.7915 27.0471 27.7774 26.9167 27.9113Z" fill="#0171B3"/>
<path d="M24.7677 28.8169C24.6797 28.919 24.6726 28.9507 24.6867 29.1833C24.6973 29.3947 24.7149 29.4546 24.7818 29.5285C24.8981 29.6519 25.106 29.6554 25.2258 29.5321C25.3033 29.4546 25.3138 29.4193 25.3138 29.1621C25.3138 28.9049 25.3033 28.8697 25.2258 28.7922C25.0954 28.6583 24.891 28.6689 24.7677 28.8169Z" fill="#0171B3"/>
</svg>
