<svg width="46" height="46" viewBox="0 0 46 46" fill="none" xmlns="http://www.w3.org/2000/svg">
<rect width="46" height="46" rx="23" fill="#E7873B" fill-opacity="0.2"/>
<path d="M16.6521 13.1278C15.8737 13.3183 15.2372 13.9832 15.0669 14.786C14.9777 15.2117 14.9777 29.9689 15.0669 30.3946C15.2372 31.2055 15.8777 31.8663 16.6724 32.0569C16.8913 32.1055 17.4021 32.1177 19.9563 32.1177C22.9037 32.1177 22.9847 32.1136 23.0821 32.0366C23.305 31.8623 23.3294 31.5298 23.1307 31.3433L23.0253 31.246L19.9603 31.2258C16.9237 31.2055 16.8913 31.2055 16.7007 31.1163C16.4169 30.9866 16.1696 30.7352 16.0358 30.4433L15.9183 30.1919V22.5903V14.9887L16.0358 14.7373C16.1696 14.4454 16.4169 14.1941 16.7007 14.0643C16.8913 13.9751 16.8913 13.9751 20.8036 13.963C22.9564 13.9549 24.7767 13.963 24.8497 13.9751L24.9794 13.9995V15.4103C24.9794 17.0644 24.9835 17.0806 25.3402 17.4455C25.7294 17.8388 25.774 17.8469 27.4282 17.8469H28.8187L28.8471 18.0577C28.8593 18.1753 28.8714 19.574 28.8714 21.1632C28.8714 23.0687 28.8877 24.0822 28.912 24.135C28.9363 24.1755 29.0093 24.2404 29.0742 24.2728C29.3296 24.4066 29.6134 24.3093 29.7188 24.062C29.7553 23.9768 29.7634 23.1336 29.7553 20.8267C29.7431 17.7253 29.7431 17.705 29.6539 17.4415C29.6053 17.2955 29.5039 17.0847 29.4309 16.9671C29.2525 16.6914 26.1957 13.6062 25.9119 13.4156C25.7903 13.3346 25.5794 13.2251 25.4457 13.1764L25.2024 13.0832L21.0468 13.0751C17.5602 13.071 16.8548 13.0791 16.6521 13.1278ZM27.0471 15.7914L28.2025 16.959L27.1565 16.9469L26.1065 16.9347L25.9889 16.8009L25.8713 16.6712V15.6292C25.8713 15.0576 25.8754 14.5995 25.8835 14.6076C25.8876 14.6197 26.4105 15.1508 27.0471 15.7914Z" fill="#E7873B"/>
<path d="M17.7636 17.0724C17.6298 17.2062 17.5812 17.3522 17.6177 17.5062C17.6339 17.5671 17.6988 17.6644 17.7636 17.7292L17.8772 17.8468H20.4313C22.9084 17.8468 22.9854 17.8427 23.0827 17.7657C23.3179 17.5833 23.3301 17.2427 23.1111 17.0603L22.9854 16.9549H20.4313H17.8772L17.7636 17.0724Z" fill="#E7873B"/>
<path d="M19.06 19.6672C18.9262 19.801 18.8776 19.9469 18.9141 20.101C18.9303 20.1618 18.9952 20.2591 19.06 20.324L19.1735 20.4415H23.025C26.7914 20.4415 26.8765 20.4415 26.9738 20.3604C27.209 20.178 27.2211 19.8375 27.0022 19.655L26.8765 19.5496H23.025H19.1735L19.06 19.6672Z" fill="#E7873B"/>
<path d="M17.819 21.7753C17.5716 21.9253 17.5392 22.2578 17.75 22.4767L17.8595 22.5902H22.384H26.9085L27.022 22.4767C27.1598 22.3267 27.1963 22.1159 27.1112 21.9496C26.9733 21.6821 27.2571 21.6983 22.3759 21.6983C18.1109 21.6983 17.9406 21.7023 17.819 21.7753Z" fill="#E7873B"/>
<path d="M25.0604 23.4457C23.1347 23.5835 21.6062 25.1606 21.5049 27.1147C21.3914 29.2351 22.8712 30.9824 24.9915 31.2297C25.551 31.2946 26.0942 31.2338 26.678 31.0392L27.1037 30.8973L28.0159 31.8095C28.5997 32.3852 28.9971 32.7501 29.1146 32.8109C29.366 32.9366 29.8403 32.9649 30.1241 32.8676C30.4485 32.7622 30.7079 32.5311 30.866 32.2109C30.9796 31.9757 30.9998 31.8987 30.9998 31.6311C30.9958 31.1041 30.9228 30.9905 29.8647 29.9283L28.9525 29.0161L29.0579 28.7526C29.2525 28.2783 29.3295 27.7877 29.3052 27.1918C29.2808 26.5796 29.1876 26.1863 28.9525 25.6836C28.6889 25.1241 28.3241 24.6498 27.8862 24.2971C27.0673 23.6484 26.1429 23.3686 25.0604 23.4457ZM25.8429 24.3781C26.8037 24.5281 27.6592 25.1484 28.0808 26.0079C28.3322 26.5228 28.4011 26.8107 28.4011 27.3539C28.4011 27.6864 28.3768 27.881 28.3119 28.1161C28.0322 29.1053 27.2943 29.8878 26.3375 30.2C25.8753 30.35 25.1658 30.3784 24.7077 30.2608C24.0915 30.1027 23.4793 29.7216 23.1022 29.2553C22.8428 28.9351 22.5711 28.3837 22.486 28.0026C22.3847 27.5526 22.4171 26.8553 22.559 26.4215C23.0171 25.0349 24.4239 24.1592 25.8429 24.3781ZM30.0876 31.6027C30.0876 31.8784 29.8565 32.0771 29.6133 32.0203C29.5403 32 29.2119 31.7041 28.7011 31.1933L27.9024 30.3986L28.174 30.1108L28.4457 29.8229L29.2687 30.6378C30.043 31.4081 30.0876 31.4608 30.0876 31.6027Z" fill="#E7873B"/>
<path d="M23.451 26.9688C23.2807 27.0702 23.2361 27.1634 23.2361 27.4229C23.2361 28.5135 24.2537 29.5229 25.3483 29.5229C25.6078 29.5229 25.7456 29.4419 25.8308 29.2432C25.9605 28.9229 25.7537 28.6594 25.3443 28.6189C25.0118 28.5824 24.7564 28.4648 24.5253 28.2378C24.3023 28.0188 24.1807 27.7594 24.1442 27.431C24.128 27.2972 24.0996 27.1593 24.0794 27.1188C24.0267 27.0175 23.8037 26.8877 23.682 26.8877C23.6253 26.8877 23.5239 26.9242 23.451 26.9688Z" fill="#E7873B"/>
<path d="M17.7466 24.0011C17.6088 24.1511 17.5723 24.3619 17.6574 24.5281C17.7872 24.7795 17.8155 24.7835 19.4048 24.7714L20.84 24.7592L20.9616 24.6416C21.067 24.5403 21.0873 24.4916 21.0873 24.3213C21.0873 24.1592 21.067 24.1065 20.9697 24.0051L20.8521 23.8875H19.3561H17.8601L17.7466 24.0011Z" fill="#E7873B"/>
<path d="M17.7636 26.1539C17.6298 26.2877 17.5812 26.4336 17.6177 26.5877C17.6339 26.6485 17.6988 26.7458 17.7636 26.8107L17.8772 26.9282H18.9191H19.961L20.0989 26.7904C20.2124 26.6769 20.2367 26.6201 20.2367 26.4823C20.2367 26.3444 20.2124 26.2877 20.0989 26.1741L19.961 26.0363H18.9191H17.8772L17.7636 26.1539Z" fill="#E7873B"/>
<path d="M17.819 28.2621C17.5716 28.4121 17.5392 28.7446 17.75 28.9635L17.8595 29.077H19.1406H20.4217L20.5353 28.9635C20.6731 28.8135 20.7096 28.6027 20.6245 28.4365C20.4988 28.1932 20.4461 28.1851 19.1325 28.1851C18.0419 28.1851 17.9325 28.1932 17.819 28.2621Z" fill="#E7873B"/>
</svg>
