<svg width="46" height="46" viewBox="0 0 46 46" fill="none" xmlns="http://www.w3.org/2000/svg">
<rect width="46" height="46" rx="23" fill="#E7873B" fill-opacity="0.2"/>
<path d="M15.136 12.5908C13.8795 12.9159 12.9086 13.8956 12.5879 15.1521C12.5 15.4948 12.5 15.631 12.5 22.9985C12.5 30.3661 12.5 30.5023 12.5879 30.845C12.9086 32.1103 13.8883 33.09 15.1536 33.4107C15.4962 33.4985 15.6324 33.4985 23 33.4985C30.3676 33.4985 30.5038 33.4985 30.8464 33.4107C32.1117 33.09 33.0914 32.1103 33.4121 30.845C33.5 30.5023 33.5 30.3661 33.5 22.9985C33.5 15.631 33.5 15.4948 33.4121 15.1521C33.0914 13.8868 32.1117 12.9071 30.8464 12.5864C30.5038 12.4985 30.372 12.4985 22.9824 12.5029C15.672 12.5029 15.4567 12.5073 15.136 12.5908ZM30.7322 13.632C31.523 13.9176 32.0678 14.4623 32.3446 15.2531L32.4676 15.5958V22.9985V30.4013L32.3446 30.7439C32.0678 31.5303 31.5713 32.0356 30.7762 32.3387L30.4467 32.4661H23.022H15.5973L15.2546 32.3431C14.455 32.0619 13.9366 31.5435 13.6554 30.7439L13.5324 30.4013V22.9985V15.5958L13.6554 15.2531C13.9586 14.3921 14.6395 13.7638 15.4435 13.6013C15.5753 13.5749 15.7247 13.5441 15.773 13.5354C15.8213 13.5266 19.1427 13.5222 23.1538 13.5266L30.4467 13.531L30.7322 13.632Z" fill="#E7873B"/>
<path d="M21.2647 18.513C21.2164 18.535 21.1461 18.5877 21.1066 18.6316C21.067 18.6799 20.6453 19.5542 20.1752 20.5822L19.3185 22.4494L18.1455 22.4714L16.9725 22.4933L16.8451 22.6383C16.744 22.7525 16.7177 22.8228 16.7177 22.981C16.7177 23.1523 16.7396 23.205 16.867 23.3324L17.0164 23.4818H18.4442C19.7754 23.4818 19.8764 23.4774 19.9731 23.3983C20.0434 23.3456 20.3202 22.7877 20.7595 21.8387C21.3526 20.5427 21.5064 20.2483 21.5064 20.4021C21.5064 20.4241 22.1302 21.9793 22.8902 23.8596C24.4367 27.6994 24.362 27.55 24.7662 27.5149C24.92 27.4973 25.0166 27.4622 25.0869 27.3875C25.144 27.3304 25.5526 26.4385 25.9919 25.4061L26.8003 23.5257H27.8459C28.9662 23.5257 29.0672 23.5082 29.2122 23.2973C29.3045 23.1699 29.3045 22.8272 29.2122 22.6998C29.0628 22.4845 28.9838 22.4714 27.613 22.4714C26.5367 22.4714 26.3126 22.4801 26.1984 22.5416C26.0446 22.6207 25.9919 22.7306 25.2363 24.4879C24.9639 25.1293 24.731 25.6257 24.7223 25.5906C24.7091 25.5598 24.0808 24.0002 23.3252 22.1243C21.8227 18.4075 21.8534 18.4691 21.5151 18.4778C21.4273 18.4778 21.313 18.4954 21.2647 18.513Z" fill="#E7873B"/>
</svg>
